<mxfile host="app.diagrams.net" modified="2023-04-12T02:27:08.993Z" agent="Mozilla/5.0 (Windows NT 10.0; Win64; x64) AppleWebKit/537.36 (KHTML, like Gecko) Chrome/111.0.0.0 Safari/537.36" version="21.1.6" etag="r_UHyuQLfgr6R-zmIG6Z" type="github">
  <diagram name="第 1 页" id="z-B91L23hueu_XbIeqSA">
    <mxGraphModel>
      <root>
        <mxCell id="0" />
        <mxCell id="1" parent="0" />
      </root>
    </mxGraphModel>
  </diagram>
</mxfile>
